<svg width="110" height="125" xmlns="http://www.w3.org/2000/svg">
HitD4D8D6D10D12D20123141516171819204567891011121340506070809000030*X-+
 <metadata id="metadata241">image/svg+xmlOpenclipart</metadata>
 <g>
  <title>background</title>
  <rect fill="none" id="canvas_background" height="54" width="54" y="-1" x="-1"/>
 </g>
 <g>
  <title>Layer 1</title>
  <rect height="454.57" x="-634.5" width="1098.5" y="-1082" id="rect3325"/>
  <rect height="250.96" x="-691.32" width="288.84" y="-1200.4" id="rect3333-2-1-7-5-1-1"/>
  <rect height="303.05" x="-643.97" width="421.42" y="-1096.2" id="rect3333"/>
  <rect height="222.55" x="-643.97" width="279.37" y="-1096.2" id="rect3333-7"/>
  <rect height="227.28" x="-643.97" width="312.52" y="-1096.2" id="rect3333-2"/>
  <rect height="250.96" x="-643.97" width="411.95" y="-1096.2" id="rect3333-2-1"/>
  <rect height="250.96" x="-643.97" width="411.95" y="-1096.2" id="rect3333-2-1-7"/>
  <g transform="matrix(0.25983,0,0,0.25983,463.76,280.15) " id="g3162">
   <path stroke="#000000" stroke-width="16" fill="#ff0000" d="m-1780.43594,-952.3893l208.07,-122.82l208.03,122.23l-11.16,232.13l-197.46,122.23l-196.88,-119.29l-10.6,-234.48z" id="path3007-8"/>
   <g fill="#ff0000" transform="matrix(0.39948,0,0,0.39948,-1174.3,-120.6) " id="g3032">
    <path stroke="#000000" stroke-width="8" fill="none" d="m-990.61629,-2385.21734l-4.4133,214.78m-314.82,594.33l639.93,7.35m-817.93,70.66l179.47,-76.54l310.4,373.64l325.11,-370.7l142.56,48.4m-960.32,-541.11l497.07,-104.55l491.15,106.02l-177.81,489.77l-317.76,-597.27l-314.81,592.86l-177.84,-486.83z" id="path3017-8"/>
   </g>
  </g>
  <rect height="250.96" x="-643.97" width="411.95" y="-1096.2" id="rect3333-2-1-7-9"/>
  <rect height="250.96" x="-691.32" width="288.84" y="-1200.4" id="rect3333-2-1-7-5"/>
  <rect height="250.96" x="-691.32" width="288.84" y="-1200.4" id="rect3333-2-1-7-5-2"/>
  <rect height="250.96" x="-691.32" width="288.84" y="-1200.4" id="rect3333-2-1-7-5-3"/>
  <rect height="250.96" x="-691.32" width="288.84" y="-1200.4" id="rect3333-2-1-7-5-27"/>
  <rect height="250.96" x="-691.32" width="288.84" y="-1200.4" id="rect3333-2-1-7-5-1"/>
  <rect height="250.96" x="-691.32" width="288.84" y="-1200.4" id="rect3333-2-1-7-5-5"/>
  <rect height="250.96" x="-691.32" width="288.84" y="-1200.4" id="rect3333-2-1-7-5-6"/>
  <rect height="250.96" x="-691.32" width="288.84" y="-1200.4" id="rect3333-2-1-7-5-50"/>
  <rect height="250.96" x="-691.32" width="288.84" y="-1200.4" id="rect3333-2-1-7-5-38"/>
  <rect height="250.96" x="-691.32" width="288.84" y="-1200.4" id="rect3333-2-1-7-5-66"/>
  <rect height="250.96" x="-691.32" width="288.84" y="-1200.4" id="rect3333-2-1-7-5-3-9"/>
  <rect height="250.96" x="-691.32" width="288.84" y="-1200.4" id="rect3333-2-1-7-5-3-8"/>
  <rect height="250.96" x="-691.32" width="288.84" y="-1200.4" id="rect3333-2-1-7-5-3-1"/>
  <rect height="250.96" x="-691.32" width="288.84" y="-1200.4" id="rect3333-2-1-7-5-3-4"/>
  <rect height="250.96" x="-691.32" width="288.84" y="-1200.4" id="rect3333-2-1-7-5-3-3"/>
  <rect height="250.96" x="-691.32" width="288.84" y="-1200.4" id="rect3333-2-1-7-5-3-0"/>
  <rect height="250.96" x="-691.32" width="288.84" y="-1200.4" id="rect3333-2-1-7-5-3-6"/>
  <rect height="250.96" x="-691.32" width="288.84" y="-1200.4" id="rect3333-2-1-7-5-3-7"/>
  <rect height="250.96" x="-691.32" width="288.84" y="-1200.4" id="rect3333-2-1-7-5-3-2"/>
  <rect height="250.96" x="-691.32" width="288.84" y="-1200.4" id="rect3333-2-1-7-5-3-07"/>
  <rect height="250.96" x="-691.32" width="288.84" y="-1200.4" id="rect3333-2-1-7-5-27-7"/>
  <rect height="250.96" x="-691.32" width="288.84" y="-1200.4" id="rect3333-2-1-7-5-1-5"/>
  <rect height="250.96" x="-691.32" width="288.84" y="-1200.4" id="rect3333-2-1-7-5-5-1"/>
  <rect height="250.96" x="-691.32" width="288.84" y="-1200.4" id="rect3333-2-1-7-5-6-6"/>
  <rect height="250.96" x="-691.32" width="288.84" y="-1200.4" id="rect3333-2-1-7-5-50-0"/>
  <rect height="250.96" x="-691.32" width="288.84" y="-1200.4" id="rect3333-2-1-7-5-38-0"/>
  <rect height="250.96" x="-691.32" width="288.84" y="-1200.4" id="rect3333-2-1-7-5-66-8"/>
  <rect height="250.96" x="-691.32" width="288.84" y="-1200.4" id="rect3333-2-1-7-5-3-2-2"/>
  <rect height="250.96" x="-691.32" width="288.84" y="-1200.4" id="rect3333-2-1-7-5-3-07-4"/>
  <rect height="303.05" x="-691.32" width="374.07" y="-1200.4" id="rect3333-2-1-7-5-27-8"/>
  <rect height="250.96" x="-691.32" width="288.84" y="-1200.4" id="rect3333-2-1-7-5-5-8"/>
  <rect x="-691.32" y="-1205.2" width="255.7" height="298.31" id="rect3333-2-1-7-5-3-2-8"/>
  <rect height="307.78" x="-691.32" width="303.05" y="-1200.4" id="rect3333-2-1-7-5-3-07-49"/>
 </g></svg>